<mxfile host="app.diagrams.net" modified="2020-10-20T11:09:42.797Z" agent="5.0 (Windows NT 10.0; Win64; x64) AppleWebKit/537.36 (KHTML, like Gecko) Chrome/86.0.4240.75 Safari/537.36" etag="5q1puLtxs8nN_Lzhbz7h" version="13.6.6" type="github">
  <diagram id="wVjcUUEIHYKsJOjNvUZC" name="Page-1">
    <mxGraphModel dx="1609" dy="437" grid="1" gridSize="10" guides="1" tooltips="1" connect="1" arrows="1" fold="1" page="1" pageScale="1" pageWidth="827" pageHeight="1169" math="0" shadow="0">
      <root>
        <mxCell id="0" />
        <mxCell id="1" parent="0" />
        <mxCell id="gsyiKU60q8panY_dlVR0-2" value="" style="rounded=0;whiteSpace=wrap;html=1;" vertex="1" parent="1">
          <mxGeometry x="-7.5" y="290" width="587.5" height="340" as="geometry" />
        </mxCell>
        <mxCell id="gsyiKU60q8panY_dlVR0-3" value="yudun_vpc" style="rounded=0;whiteSpace=wrap;html=1;" vertex="1" parent="1">
          <mxGeometry x="-7.5" y="290" width="90" height="30" as="geometry" />
        </mxCell>
        <mxCell id="gsyiKU60q8panY_dlVR0-12" value="" style="edgeStyle=orthogonalEdgeStyle;rounded=0;orthogonalLoop=1;jettySize=auto;html=1;" edge="1" parent="1" source="gsyiKU60q8panY_dlVR0-10" target="gsyiKU60q8panY_dlVR0-11">
          <mxGeometry relative="1" as="geometry" />
        </mxCell>
        <mxCell id="gsyiKU60q8panY_dlVR0-10" value="dns" style="rounded=0;whiteSpace=wrap;html=1;" vertex="1" parent="1">
          <mxGeometry x="270" y="325" width="50" height="30" as="geometry" />
        </mxCell>
        <mxCell id="gsyiKU60q8panY_dlVR0-57" style="edgeStyle=orthogonalEdgeStyle;rounded=0;orthogonalLoop=1;jettySize=auto;html=1;exitX=0;exitY=0.5;exitDx=0;exitDy=0;entryX=0.5;entryY=0;entryDx=0;entryDy=0;" edge="1" parent="1" source="gsyiKU60q8panY_dlVR0-11" target="gsyiKU60q8panY_dlVR0-49">
          <mxGeometry relative="1" as="geometry" />
        </mxCell>
        <mxCell id="gsyiKU60q8panY_dlVR0-11" value="vip" style="whiteSpace=wrap;html=1;aspect=fixed;" vertex="1" parent="1">
          <mxGeometry x="170" y="320" width="40" height="40" as="geometry" />
        </mxCell>
        <mxCell id="gsyiKU60q8panY_dlVR0-15" value="" style="endArrow=classic;html=1;" edge="1" parent="1" source="gsyiKU60q8panY_dlVR0-16" target="gsyiKU60q8panY_dlVR0-10">
          <mxGeometry width="50" height="50" relative="1" as="geometry">
            <mxPoint x="260" y="170" as="sourcePoint" />
            <mxPoint x="240" y="280" as="targetPoint" />
            <Array as="points">
              <mxPoint x="290" y="210" />
              <mxPoint x="295" y="250" />
            </Array>
          </mxGeometry>
        </mxCell>
        <mxCell id="gsyiKU60q8panY_dlVR0-49" value="" style="rounded=0;whiteSpace=wrap;html=1;fillColor=#d5e8d4;strokeColor=#82b366;" vertex="1" parent="1">
          <mxGeometry x="82.5" y="370" width="140" height="120" as="geometry" />
        </mxCell>
        <mxCell id="gsyiKU60q8panY_dlVR0-50" value="scanner_manager" style="rounded=0;whiteSpace=wrap;html=1;" vertex="1" parent="1">
          <mxGeometry x="82.5" y="400" width="117" height="30" as="geometry" />
        </mxCell>
        <mxCell id="gsyiKU60q8panY_dlVR0-55" value="scanner_manager" style="rounded=0;whiteSpace=wrap;html=1;" vertex="1" parent="1">
          <mxGeometry x="105.5" y="420" width="117" height="30" as="geometry" />
        </mxCell>
        <mxCell id="gsyiKU60q8panY_dlVR0-64" style="edgeStyle=orthogonalEdgeStyle;rounded=0;orthogonalLoop=1;jettySize=auto;html=1;exitX=0.5;exitY=1;exitDx=0;exitDy=0;" edge="1" parent="1" source="gsyiKU60q8panY_dlVR0-59">
          <mxGeometry relative="1" as="geometry">
            <mxPoint x="150" y="690" as="targetPoint" />
          </mxGeometry>
        </mxCell>
        <mxCell id="gsyiKU60q8panY_dlVR0-75" style="edgeStyle=orthogonalEdgeStyle;rounded=0;orthogonalLoop=1;jettySize=auto;html=1;exitX=1;exitY=0.5;exitDx=0;exitDy=0;entryX=0.25;entryY=1;entryDx=0;entryDy=0;" edge="1" parent="1" source="gsyiKU60q8panY_dlVR0-59" target="gsyiKU60q8panY_dlVR0-66">
          <mxGeometry relative="1" as="geometry" />
        </mxCell>
        <mxCell id="gsyiKU60q8panY_dlVR0-59" value="" style="rounded=0;whiteSpace=wrap;html=1;fillColor=#d5e8d4;strokeColor=#82b366;" vertex="1" parent="1">
          <mxGeometry x="82.5" y="530" width="140" height="90" as="geometry" />
        </mxCell>
        <mxCell id="gsyiKU60q8panY_dlVR0-60" value="scanner_internet" style="rounded=0;whiteSpace=wrap;html=1;" vertex="1" parent="1">
          <mxGeometry x="92.5" y="547.5" width="97" height="35" as="geometry" />
        </mxCell>
        <mxCell id="gsyiKU60q8panY_dlVR0-61" value="scanner_internet" style="rounded=0;whiteSpace=wrap;html=1;" vertex="1" parent="1">
          <mxGeometry x="113" y="567" width="97" height="35" as="geometry" />
        </mxCell>
        <mxCell id="gsyiKU60q8panY_dlVR0-65" value="扫描公网资产" style="rounded=1;whiteSpace=wrap;html=1;" vertex="1" parent="1">
          <mxGeometry x="90" y="640" width="120" height="30" as="geometry" />
        </mxCell>
        <mxCell id="gsyiKU60q8panY_dlVR0-73" style="edgeStyle=orthogonalEdgeStyle;rounded=0;orthogonalLoop=1;jettySize=auto;html=1;entryX=1;entryY=0.75;entryDx=0;entryDy=0;" edge="1" parent="1" source="gsyiKU60q8panY_dlVR0-66" target="gsyiKU60q8panY_dlVR0-55">
          <mxGeometry relative="1" as="geometry" />
        </mxCell>
        <mxCell id="gsyiKU60q8panY_dlVR0-74" value="保存数据" style="edgeLabel;html=1;align=center;verticalAlign=middle;resizable=0;points=[];" vertex="1" connectable="0" parent="gsyiKU60q8panY_dlVR0-73">
          <mxGeometry x="-0.3043" y="-12" relative="1" as="geometry">
            <mxPoint x="-14" y="-11" as="offset" />
          </mxGeometry>
        </mxCell>
        <mxCell id="gsyiKU60q8panY_dlVR0-66" value="vip" style="rounded=0;whiteSpace=wrap;html=1;" vertex="1" parent="1">
          <mxGeometry x="320" y="410" width="40" height="150" as="geometry" />
        </mxCell>
        <mxCell id="gsyiKU60q8panY_dlVR0-69" value="" style="edgeStyle=orthogonalEdgeStyle;rounded=0;orthogonalLoop=1;jettySize=auto;html=1;" edge="1" parent="1" source="gsyiKU60q8panY_dlVR0-67" target="gsyiKU60q8panY_dlVR0-68">
          <mxGeometry relative="1" as="geometry" />
        </mxCell>
        <mxCell id="gsyiKU60q8panY_dlVR0-76" style="edgeStyle=orthogonalEdgeStyle;rounded=0;orthogonalLoop=1;jettySize=auto;html=1;exitX=0;exitY=0.5;exitDx=0;exitDy=0;entryX=1;entryY=0.567;entryDx=0;entryDy=0;entryPerimeter=0;" edge="1" parent="1" source="gsyiKU60q8panY_dlVR0-67" target="gsyiKU60q8panY_dlVR0-66">
          <mxGeometry relative="1" as="geometry" />
        </mxCell>
        <mxCell id="gsyiKU60q8panY_dlVR0-67" value="scanner_vpc" style="rounded=0;whiteSpace=wrap;html=1;fillColor=#fff2cc;strokeColor=#d6b656;" vertex="1" parent="1">
          <mxGeometry x="410" y="420" width="70" height="150" as="geometry" />
        </mxCell>
        <mxCell id="gsyiKU60q8panY_dlVR0-68" value="user_eni" style="whiteSpace=wrap;html=1;rounded=0;" vertex="1" parent="1">
          <mxGeometry x="518" y="465" width="52" height="60" as="geometry" />
        </mxCell>
        <mxCell id="gsyiKU60q8panY_dlVR0-70" value="" style="endArrow=classic;html=1;" edge="1" parent="1">
          <mxGeometry width="50" height="50" relative="1" as="geometry">
            <mxPoint x="570" y="500" as="sourcePoint" />
            <mxPoint x="660" y="500" as="targetPoint" />
            <Array as="points">
              <mxPoint x="660" y="500" />
            </Array>
          </mxGeometry>
        </mxCell>
        <mxCell id="gsyiKU60q8panY_dlVR0-72" value="扫描vpc资产" style="rounded=1;whiteSpace=wrap;html=1;" vertex="1" parent="1">
          <mxGeometry x="590" y="470" width="50" height="60" as="geometry" />
        </mxCell>
        <mxCell id="gsyiKU60q8panY_dlVR0-77" value="user_vpc" style="rounded=0;whiteSpace=wrap;html=1;" vertex="1" parent="1">
          <mxGeometry x="660" y="280" width="100" height="340" as="geometry" />
        </mxCell>
        <mxCell id="gsyiKU60q8panY_dlVR0-16" value="yundun控制台" style="rounded=1;whiteSpace=wrap;html=1;" vertex="1" parent="1">
          <mxGeometry x="242.5" y="250" width="105" height="30" as="geometry" />
        </mxCell>
      </root>
    </mxGraphModel>
  </diagram>
</mxfile>
